<?xml version="1.0" encoding="utf-8"?>
<!-- Generator: Adobe Illustrator 26.0.1, SVG Export Plug-In . SVG Version: 6.00 Build 0)  -->
<svg version="1.1" id="Capa_1" xmlns="http://www.w3.org/2000/svg" xmlns:xlink="http://www.w3.org/1999/xlink" x="0px" y="0px"
	 viewBox="0 0 1440 217" style="enable-background:new 0 0 1440 217;" xml:space="preserve">
<style type="text/css">
	.st0{opacity:0.4;}
	.st1{fill-rule:evenodd;clip-rule:evenodd;fill:#5FB5B9;}
	.st2{filter:url(#Adobe_OpacityMaskFilter);}
	.st3{fill-rule:evenodd;clip-rule:evenodd;fill:#FFFFFF;}
	.st4{mask:url(#b_00000124871128470444813640000011663447793545255077_);}
	.st5{fill-rule:evenodd;clip-rule:evenodd;fill:#008BA7;}
</style>
<g transform="translate(-285 -41)" class="st0">
	<g>
		<g>
			<g>
				<path id="a_00000099656317401696966070000003287955063703282077_" class="st1" d="M261.7,286.7c421.5,0,1489,176.1,1489,39.2
					s478.8-248,57.3-248c-198.7,0-468.6,3.6-720-11.2C806.3,50.1,541.9,27.2,345,52.4C-27.7,100.1-159.8,286.7,261.7,286.7
					L261.7,286.7z"/>
			</g>
		</g>
		<defs>
			<filter id="Adobe_OpacityMaskFilter" filterUnits="userSpaceOnUse" x="328" y="106.9" width="1402.5" height="375.1">
				<feColorMatrix  type="matrix" values="1 0 0 0 0  0 1 0 0 0  0 0 1 0 0  0 0 0 1 0"/>
			</filter>
		</defs>
		
			<mask maskUnits="userSpaceOnUse" x="328" y="106.9" width="1402.5" height="375.1" id="b_00000124871128470444813640000011663447793545255077_">
			<g class="st2">
				<path id="a_00000104707254617649222280000000583512261617218967_" class="st3" d="M546.7,327.7c421.5,0,1489,176.1,1489,39.2
					s478.8-248,57.3-248c-198.7,0-468.6,3.6-720-11.2c-281.7-16.6-546.1-39.4-743-14.2C257.3,141.1,125.2,327.7,546.7,327.7
					L546.7,327.7z"/>
			</g>
		</mask>
		<g class="st4">
			<path class="st5" d="M445.7,387.7c421.5,0,972.7,179.8,972.7,42.9s579.9-255.2,158.5-255.2s-707-147-707-10.2
				C869.9,302.1,24.2,387.7,445.7,387.7L445.7,387.7z"/>
		</g>
	</g>
</g>
<image style="overflow:visible;" width="400" height="408" xlink:href="DEEF2C53.jpg"  transform="matrix(1 0 0 1 320 -606.1683)">
</image>
</svg>
